<mxfile host="app.diagrams.net" modified="2023-10-25T15:26:40.586Z" agent="Mozilla/5.0 (Macintosh; Intel Mac OS X 10_15_7) AppleWebKit/605.1.15 (KHTML, like Gecko) Version/16.4 Safari/605.1.15" version="22.0.8" etag="baRJNgeyQuLvVOxRfiYX" type="github">
  <diagram name="Страница — 1" id="5a63U8o4SDrV5FmVsjmv">
    <mxGraphModel>
      <root>
        <mxCell id="0" />
        <mxCell id="1" parent="0" />
      </root>
    </mxGraphModel>
  </diagram>
</mxfile>
